<!-- <svg xmlns="http://www.w3.org/2000/svg" viewBox="0 0 841.9 595.3"><g fill="#61DAFB"><path d="M666.3 296.5c0-32.5-40.7-63.3-103.1-82.4 14.4-63.6 8-114.2-20.2-130.4-6.5-3.8-14.1-5.6-22.4-5.6v22.3c4.6 0 8.3.9 11.4 2.6 13.6 7.8 19.5 37.5 14.9 75.7-1.1 9.4-2.9 19.3-5.1 29.4-19.6-4.8-41-8.5-63.5-10.9-13.5-18.5-27.5-35.3-41.6-50 32.6-30.3 63.2-46.9 84-46.9V78c-27.5 0-63.5 19.6-99.9 53.6-36.4-33.8-72.4-53.2-99.9-53.2v22.3c20.7 0 51.4 16.5 84 46.6-14 14.7-28 31.4-41.3 49.9-22.6 2.4-44 6.1-63.6 11-2.3-10-4-19.7-5.2-29-4.7-38.2 1.1-67.9 14.6-75.8 3-1.8 6.9-2.6 11.5-2.6V78.5c-8.4 0-16 1.8-22.6 5.6-28.1 16.2-34.4 66.7-19.9 130.1-62.2 19.2-102.7 49.9-102.7 82.3 0 32.5 40.7 63.3 103.1 82.4-14.4 63.6-8 114.2 20.2 130.4 6.5 3.8 14.1 5.6 22.5 5.6 27.5 0 63.5-19.6 99.9-53.6 36.4 33.8 72.4 53.2 99.9 53.2 8.4 0 16-1.8 22.6-5.6 28.1-16.2 34.4-66.7 19.9-130.1 62-19.1 102.5-49.9 102.5-82.3zm-130.2-66.7c-3.7 12.9-8.3 26.2-13.5 39.5-4.1-8-8.4-16-13.1-24-4.6-8-9.5-15.8-14.4-23.4 14.2 2.1 27.9 4.7 41 7.9zm-45.8 106.5c-7.8 13.5-15.8 26.3-24.1 38.2-14.9 1.3-30 2-45.2 2-15.1 0-30.2-.7-45-1.9-8.3-11.9-16.4-24.6-24.2-38-7.6-13.1-14.5-26.4-20.8-39.8 6.2-13.4 13.2-26.8 20.7-39.9 7.8-13.5 15.8-26.3 24.1-38.2 14.9-1.3 30-2 45.2-2 15.1 0 30.2.7 45 1.9 8.3 11.9 16.4 24.6 24.2 38 7.6 13.1 14.5 26.4 20.8 39.8-6.3 13.4-13.2 26.8-20.7 39.9zm32.3-13c5.4 13.4 10 26.8 13.8 39.8-13.1 3.2-26.9 5.9-41.2 8 4.9-7.7 9.8-15.6 14.4-23.7 4.6-8 8.9-16.1 13-24.1zM421.2 430c-9.3-9.6-18.6-20.3-27.8-32 9 .4 18.2.7 27.5.7 9.4 0 18.7-.2 27.8-.7-9 11.7-18.3 22.4-27.5 32zm-74.4-58.9c-14.2-2.1-27.9-4.7-41-7.9 3.7-12.9 8.3-26.2 13.5-39.5 4.1 8 8.4 16 13.1 24 4.7 8 9.5 15.8 14.4 23.4zM420.7 163c9.3 9.6 18.6 20.3 27.8 32-9-.4-18.2-.7-27.5-.7-9.4 0-18.7.2-27.8.7 9-11.7 18.3-22.4 27.5-32zm-74 58.9c-4.9 7.7-9.8 15.6-14.4 23.7-4.6 8-8.9 16-13 24-5.4-13.4-10-26.8-13.8-39.8 13.1-3.1 26.9-5.8 41.2-7.9zm-90.5 125.2c-35.4-15.1-58.3-34.9-58.3-50.6 0-15.7 22.9-35.6 58.3-50.6 8.6-3.7 18-7 27.7-10.1 5.7 19.6 13.2 40 22.5 60.9-9.2 20.8-16.6 41.1-22.2 60.6-9.9-3.1-19.3-6.5-28-10.2zM310 490c-13.6-7.8-19.5-37.5-14.9-75.7 1.1-9.4 2.9-19.3 5.1-29.4 19.6 4.8 41 8.5 63.5 10.9 13.5 18.5 27.5 35.3 41.6 50-32.6 30.3-63.2 46.9-84 46.9-4.5-.1-8.3-1-11.3-2.7zm237.2-76.2c4.7 38.2-1.1 67.9-14.6 75.8-3 1.8-6.9 2.6-11.5 2.6-20.7 0-51.4-16.5-84-46.6 14-14.7 28-31.4 41.3-49.9 22.6-2.4 44-6.1 63.6-11 2.3 10.1 4.1 19.8 5.2 29.1zm38.5-66.7c-8.6 3.7-18 7-27.7 10.1-5.7-19.6-13.2-40-22.5-60.9 9.2-20.8 16.6-41.1 22.2-60.6 9.9 3.1 19.3 6.5 28.1 10.2 35.4 15.1 58.3 34.9 58.3 50.6-.1 15.7-23 35.6-58.4 50.6zM320.8 78.4z"/><circle cx="420.9" cy="296.5" r="45.7"/><path d="M520.5 78.1z"/></g></svg> -->
<svg width="211" height="68" viewBox="0 0 211 68" fill="none" xmlns="http://www.w3.org/2000/svg">
<path d="M20.0745 34.6485L8.84014 46.1362V62.2561H0V0H8.84014V34.8338L42.359 0H52.4883L26.1521 27.9782L54.33 62.2561H44.0165L20.0745 34.6485Z" fill="#FF6060"/>
<path d="M118.789 57.2535L122.289 50.5832C126.34 53.3625 132.602 55.4006 138.68 55.4006C146.599 55.4006 149.73 52.9919 149.73 48.9156C149.73 38.3543 120.078 47.4333 120.078 28.7194C120.078 20.1963 127.629 14.6377 139.6 14.6377C145.678 14.6377 152.676 16.3053 156.728 18.8993L153.045 25.5696C148.809 22.7903 144.205 21.8639 139.6 21.8639C132.234 21.8639 128.55 24.6431 128.55 28.3489C128.55 39.466 158.202 30.387 158.202 48.7303C158.202 57.2535 150.466 62.6268 137.943 62.6268C130.392 62.8121 122.657 60.4034 118.789 57.2535Z" fill="#FF6060"/>
<path d="M210.322 33.7221V62.2562H202.218V55.9565C199.456 60.2181 194.115 62.6268 186.748 62.6268C176.066 62.6268 169.436 56.8829 169.436 48.7303C169.436 41.1336 174.224 35.0191 188.221 35.0191H201.666V33.3516C201.666 26.1254 197.43 22.0491 189.142 22.0491C183.617 22.0491 177.908 24.0873 174.224 27.0518L170.725 20.5668C175.514 16.6758 182.512 14.4524 190.063 14.4524C203.139 14.6377 210.322 20.9374 210.322 33.7221ZM201.85 47.8039V41.1336H188.774C180.302 41.1336 177.908 44.4687 177.908 48.3597C177.908 52.9919 181.775 55.9565 188.221 55.9565C194.667 56.1418 199.824 53.3625 201.85 47.8039Z" fill="#FF6060"/>
<path d="M91.5323 49.842V62.4415L96.8732 59.2916V46.6921L91.5323 49.842Z" fill="#FF6060"/>
<path d="M106.266 34.4633L84.3497 21.6786L72.1945 14.6377L60.2234 35.575L60.4076 55.2153L82.1396 68.0001L84.3497 66.7031V48.1745L94.1106 30.9429L104.056 36.6867V55.2153L106.266 53.9184V34.4633Z" fill="#FF6060"/>
</svg>
